<mxfile host="app.diagrams.net" modified="2024-05-28T23:37:22.435Z" agent="Mozilla/5.0 (Windows NT 10.0; Win64; x64; rv:126.0) Gecko/20100101 Firefox/126.0" version="24.4.9" etag="0bjhvfJVTRMIRQ-4Dzaj" type="github">
  <diagram name="Page-1" id="YF0XfhFsIyaQOnK5erF0">
    <mxGraphModel>
      <root>
        <mxCell id="0" />
        <mxCell id="1" parent="0" />
      </root>
    </mxGraphModel>
  </diagram>
</mxfile>
